TITLE ""
FILE "Step1_Track32.mp3" MP3
  TRACK 01 AUDIO
    TITLE "Step1_Track32_01"
    INDEX 01 00:00:00
  TRACK 02 AUDIO
    TITLE "Step1_Track32_02"
    INDEX 01 00:00:24
  TRACK 03 AUDIO
    TITLE "Step1_Track32_03"
    INDEX 01 00:02:11
  TRACK 04 AUDIO
    TITLE "Step1_Track32_04"
    INDEX 01 00:02:66
  TRACK 05 AUDIO
    TITLE "Step1_Track32_05"
    INDEX 01 00:03:65
  TRACK 06 AUDIO
    TITLE "Step1_Track32_06"
    INDEX 01 00:04:16
  TRACK 07 AUDIO
    TITLE "Step1_Track32_07"
    INDEX 01 00:06:48
  TRACK 08 AUDIO
    TITLE "Step1_Track32_08"
    INDEX 01 00:06:62
  TRACK 09 AUDIO
    TITLE "Step1_Track32_09"
    INDEX 01 00:07:61
  TRACK 10 AUDIO
    TITLE "Step1_Track32_10"
    INDEX 01 00:07:65
  TRACK 11 AUDIO
    TITLE "Step1_Track32_11"
    INDEX 01 00:09:72
  TRACK 12 AUDIO
    TITLE "Step1_Track32_12"
    INDEX 01 00:10:26
  TRACK 13 AUDIO
    TITLE "Step1_Track32_13"
    INDEX 01 00:11:20
  TRACK 14 AUDIO
    TITLE "Step1_Track32_14"
    INDEX 01 00:11:36
  TRACK 15 AUDIO
    TITLE "Step1_Track32_15"
    INDEX 01 00:13:03
  TRACK 16 AUDIO
    TITLE "Step1_Track32_16"
    INDEX 01 00:13:46
  TRACK 17 AUDIO
    TITLE "Step1_Track32_17"
    INDEX 01 00:14:42
  TRACK 18 AUDIO
    TITLE "Step1_Track32_18"
    INDEX 01 00:14:52
  TRACK 19 AUDIO
    TITLE "Step1_Track32_19"
    INDEX 01 00:16:33
  TRACK 20 AUDIO
    TITLE "Step1_Track32_20"
    INDEX 01 00:16:60
  TRACK 21 AUDIO
    TITLE "Step1_Track32_21"
    INDEX 01 00:17:56
  TRACK 22 AUDIO
    TITLE "Step1_Track32_22"
    INDEX 01 00:18:16
  TRACK 23 AUDIO
    TITLE "Step1_Track32_23"
    INDEX 01 00:20:44
  TRACK 24 AUDIO
    TITLE "Step1_Track32_24"
    INDEX 01 00:20:60
  TRACK 25 AUDIO
    TITLE "Step1_Track32_25"
    INDEX 01 00:21:63
  TRACK 26 AUDIO
    TITLE "Step1_Track32_26"
    INDEX 01 00:21:73
  TRACK 27 AUDIO
    TITLE "Step1_Track32_27"
    INDEX 01 00:24:07
  TRACK 28 AUDIO
    TITLE "Step1_Track32_28"
    INDEX 01 00:24:17
  TRACK 29 AUDIO
    TITLE "Step1_Track32_29"
    INDEX 01 00:25:22
  TRACK 30 AUDIO
    TITLE "Step1_Track32_30"
    INDEX 01 00:25:38
  TRACK 31 AUDIO
    TITLE "Step1_Track32_31"
    INDEX 01 00:27:64
  TRACK 32 AUDIO
    TITLE "Step1_Track32_32"
    INDEX 01 00:28:28
  TRACK 33 AUDIO
    TITLE "Step1_Track32_33"
    INDEX 01 00:29:10
  TRACK 34 AUDIO
    TITLE "Step1_Track32_34"
    INDEX 01 00:29:34
  TRACK 35 AUDIO
    TITLE "Step1_Track32_35"
    INDEX 01 00:31:05
  TRACK 36 AUDIO
    TITLE "Step1_Track32_36"
    INDEX 01 00:31:30
  TRACK 37 AUDIO
    TITLE "Step1_Track32_37"
    INDEX 01 00:32:36
  TRACK 38 AUDIO
    TITLE "Step1_Track32_38"
    INDEX 01 00:32:53
  TRACK 39 AUDIO
    TITLE "Step1_Track32_39"
    INDEX 01 00:34:19
  TRACK 40 AUDIO
    TITLE "Step1_Track32_40"
    INDEX 01 00:34:37
  TRACK 41 AUDIO
    TITLE "Step1_Track32_41"
    INDEX 01 00:35:34
  TRACK 42 AUDIO
    TITLE "Step1_Track32_42"
    INDEX 01 00:35:67
  TRACK 43 AUDIO
    TITLE "Step1_Track32_43"
    INDEX 01 00:38:23
